# xmcd
#
# Track frame offsets:
#	150
#	48824
#	87673
#	152474
#	177523
#	203086
#	224753
#	246077
#	268275
#
# Disc length: 4781 seconds
#
# Revision: 0
# Processed by: cddbd v1.5.2PL0 Copyright (c) Steve Scherf et al.
# Submitted via: EZCDAudioConverter 2.1.7.1
#
DISCID=8312ab09
DTITLE=Jef Gilson - Gilson Et Malagasy 4/4
DYEAR=1900
DGENRE=
TTITLE0=Colchiques Dans Les Prés [Live]
TTITLE1=Unknown 1
TTITLE2=Unknown 2
TTITLE3=Unknown 3
TTITLE4=Chant Inca [Live]
TTITLE5=Dizzy 48 [Live]
TTITLE6=Prélude En Sol Mineur [Live]
TTITLE7=Les Touches Noires
TTITLE8=Unknown 4
EXTD=
EXTT0=
EXTT1=
EXTT2=
EXTT3=
EXTT4=
EXTT5=
EXTT6=
EXTT7=
EXTT8=
PLAYORDER=
